<?xml version="1.0" encoding="UTF-8"?>
<svg version="1.1" xmlns="http://www.w3.org/2000/svg" width="1017" height="409">
<path d="M0 0 C64.06746523 -1.5447249 123.07602487 26.62126252 177.40283203 58.03515625 C183.56906779 61.60029551 189.83870221 64.96747562 196.12744141 68.31079102 C201.36888269 71.13436103 206.43362839 74.14577076 211.43408203 77.375 C213.19388072 78.49007299 214.95543828 79.60231885 216.71740723 80.71395874 C218.3709773 81.77588043 219.9965591 82.88100237 221.62060547 83.98754883 C230.38928517 89.51689095 237.28704154 89.82839106 247.28985596 89.20471191 C250.50282514 89.01911046 253.71366151 88.95967595 256.93099976 88.89691162 C261.03694096 88.81417871 265.14160879 88.68703361 269.24658203 88.56640625 C358.47508263 85.95004364 448.57960873 94.37783108 619.68408203 137.06640625 C619.35408203 137.72640625 619.02408203 138.38640625 618.68408203 139.06640625 C616.88427734 139.55297852 616.88427734 139.55297852 614.51220703 139.8828125 C613.62952148 140.00672363 612.74683594 140.13063477 611.83740234 140.25830078 C610.87930664 140.38060059 609.92121094 140.50290039 608.93408203 140.62890625 C607.95793945 140.75894043 606.98179687 140.88897461 605.97607422 141.02294922 C598.06652108 142.01957831 590.17837613 142.52910974 582.21240234 142.77563477 C581.38321289 142.80197998 580.55402344 142.8283252 579.69970703 142.85546875 C578.97041992 142.87303223 578.24113281 142.8905957 577.48974609 142.90869141 C575.58301487 142.9637355 575.58301487 142.9637355 573.68408203 144.06640625 C574.28736328 144.75605469 574.89064453 145.44570312 575.51220703 146.15625 C581.13535595 152.76798478 585.74514606 158.64144284 587.24658203 167.31640625 C586.45762703 171.17351958 584.7219294 172.64993675 581.68408203 175.06640625 C548.76578402 185.9930682 495.10081306 156.0187005 466.68408203 142.06640625 C459.6286633 138.50452342 452.63848972 134.82130346 445.68408203 131.06640625 C446.68408203 129.06640625 446.68408203 129.06640625 448.37963867 128.48803711 C449.11045654 128.33729736 449.84127441 128.18655762 450.59423828 128.03125 C451.4124707 127.86206055 452.23070312 127.69287109 453.07373047 127.51855469 C453.95577148 127.3487207 454.8378125 127.17888672 455.74658203 127.00390625 C456.64022461 126.82762695 457.53386719 126.65134766 458.45458984 126.46972656 C466.52537915 124.95304893 474.47961384 124.29558134 482.68408203 124.06640625 C411.05589333 103.67302814 313.30852642 92.35324501 239.87866211 106.81591797 C233.33760165 108.05912009 228.80279884 108.83527084 222.89111328 105.40234375 C221.06465057 104.12144567 219.26677589 102.79900693 217.49658203 101.44140625 C215.50661441 100.03331586 213.51438627 98.6284152 211.52001953 97.2265625 C210.05000488 96.16719482 210.05000488 96.16719482 208.55029297 95.08642578 C204.36435312 92.13630088 200.02691527 89.48591969 195.62158203 86.87890625 C194.81084229 86.39663574 194.00010254 85.91436523 193.16479492 85.41748047 C137.68617459 52.68877001 77.33053505 27.93715066 12.68408203 22.06640625 C10.96125 21.90011719 10.96125 21.90011719 9.20361328 21.73046875 C-61.97353779 15.8846206 -134.51173381 36.45020768 -189.85107422 81.88671875 C-192.37818217 84.0588865 -192.37818217 84.0588865 -194.74951172 86.62109375 C-198.92057914 90.90561421 -201.86141992 93.64736043 -208.00341797 93.81640625 C-210.46456208 93.62842227 -212.87036958 93.37344273 -215.31591797 93.06640625 C-217.05151319 92.88981854 -218.78719739 92.71410416 -220.52294922 92.5390625 C-254.59344564 88.82068657 -297.49027804 78.79118378 -321.31591797 52.06640625 C-321.31591797 51.07640625 -321.31591797 50.08640625 -321.31591797 49.06640625 C-320.40841797 49.39640625 -319.50091797 49.72640625 -318.56591797 50.06640625 C-308.77038616 52.82400234 -297.81460985 50.74696253 -287.92919922 49.42578125 C-287.26154352 49.33793114 -286.59388783 49.25008102 -285.90600014 49.15956879 C-271.64934997 47.27109115 -257.57070194 44.62386092 -243.48620224 41.72333145 C-241.45266225 41.30598969 -239.41822883 40.89329903 -237.38345337 40.48202515 C-213.58598581 35.67201401 -189.8605011 30.53815711 -166.14017487 25.36334229 C-111.29736143 13.39971493 -56.30747244 1.61455118 0 0 Z " fill="#3748C5" transform="translate(390.31591796875,-0.06640625)"/>
<path d="M0 0 C58.73721951 13.49598124 117.77346709 24.82826658 177.76092529 31.03973389 C180.10727892 31.28482321 182.45232059 31.54007736 184.79736328 31.79736328 C222.40791896 35.84630529 260.45350615 34.58488668 298.22265625 34.296875 C272.03636796 54.52993352 223.06318672 58.35237399 190.984375 58.5 C189.95330124 58.50701431 188.92222748 58.51402863 187.85990906 58.52125549 C184.54327979 58.53867465 181.22682962 58.54511014 177.91015625 58.546875 C176.77161194 58.54754974 175.63306763 58.54822449 174.46002197 58.54891968 C156.17717482 58.53174047 138.35394554 57.78389942 120.22265625 55.296875 C118.94535645 55.13058594 117.66805664 54.96429688 116.35205078 54.79296875 C66.83690065 48.31299066 18.44822992 35.11930514 -29.65234375 22.046875 C-85.23281724 6.12484105 -85.23281724 6.12484105 -142.46484375 0.109375 C-143.21942871 0.10873047 -143.97401367 0.10808594 -144.75146484 0.10742188 C-152.51500109 0.17863213 -160.1121849 1.12725948 -167.77734375 2.296875 C-167.77734375 1.636875 -167.77734375 0.976875 -167.77734375 0.296875 C-152.31280266 -7.15375655 -135.84858257 -11.1430433 -118.77734375 -12.703125 C-116.84375 -12.88681641 -116.84375 -12.88681641 -114.87109375 -13.07421875 C-75.98238134 -16.23952564 -37.68363587 -8.66563465 0 0 Z " fill="#365ED3" transform="translate(170.77734375,104.703125)"/>
<path d="M0 0 C17.92002964 -0.43206823 35.41160227 0.98612361 52.99658203 4.50390625 C54.04749023 4.70910889 55.09839844 4.91431152 56.18115234 5.12573242 C57.14762695 5.33174072 58.11410156 5.53774902 59.10986328 5.75 C59.9700708 5.93103271 60.83027832 6.11206543 61.71655273 6.29858398 C62.69047974 6.67865601 62.69047974 6.67865601 63.68408203 7.06640625 C64.01408203 8.05640625 64.34408203 9.04640625 64.68408203 10.06640625 C62.47571805 9.92103775 60.26739302 9.77507755 58.05908203 9.62890625 C57.37539551 9.58451416 56.69170898 9.54012207 55.98730469 9.49438477 C52.75789927 9.28234557 49.53382266 9.05353681 46.30908203 8.77734375 C32.00577027 7.57394012 17.72433568 7.60724069 3.43408203 8.94140625 C2.58966553 9.01979736 1.74524902 9.09818848 0.87524414 9.17895508 C-3.94037319 9.67807948 -8.58159373 10.47820804 -13.28710938 11.61962891 C-15.34004815 12.07172012 -17.35187991 12.34049691 -19.44091797 12.56640625 C-23.25516404 13.05856703 -26.63078033 13.9862797 -30.31591797 15.06640625 C-32.93172603 15.61087309 -35.55208682 16.11476219 -38.17919922 16.6015625 C-40.35410443 16.98264256 -40.35410443 16.98264256 -42.31591797 18.06640625 C-42.97591797 17.73640625 -43.63591797 17.40640625 -44.31591797 17.06640625 C-44.31591797 17.72640625 -44.31591797 18.38640625 -44.31591797 19.06640625 C-45.40904297 19.19015625 -46.50216797 19.31390625 -47.62841797 19.44140625 C-51.38973599 19.82105426 -51.38973599 19.82105426 -54.31591797 22.06640625 C-57.32501853 23.77060597 -60.0391677 24.5324839 -63.43701172 25.14453125 C-64.44401123 25.33249268 -65.45101074 25.5204541 -66.48852539 25.71411133 C-67.56593994 25.91286865 -68.64335449 26.11162598 -69.75341797 26.31640625 C-113.78371677 34.82929028 -163.07638298 53.37193452 -194.74951172 86.62109375 C-198.92057914 90.90561421 -201.86141992 93.64736043 -208.00341797 93.81640625 C-210.46456208 93.62842227 -212.87036958 93.37344273 -215.31591797 93.06640625 C-217.05151319 92.88981854 -218.78719739 92.71410416 -220.52294922 92.5390625 C-254.59344564 88.82068657 -297.49027804 78.79118378 -321.31591797 52.06640625 C-321.31591797 51.07640625 -321.31591797 50.08640625 -321.31591797 49.06640625 C-320.40841797 49.39640625 -319.50091797 49.72640625 -318.56591797 50.06640625 C-308.77038616 52.82400234 -297.81460985 50.74696253 -287.92919922 49.42578125 C-287.26154352 49.33793114 -286.59388783 49.25008102 -285.90600014 49.15956879 C-271.64934997 47.27109115 -257.57070194 44.62386092 -243.48620224 41.72333145 C-241.45266225 41.30598969 -239.41822883 40.89329903 -237.38345337 40.48202515 C-213.58598581 35.67201401 -189.8605011 30.53815711 -166.14017487 25.36334229 C-111.29736143 13.39971493 -56.30747244 1.61455118 0 0 Z " fill="#3666D9" transform="translate(390.31591796875,-0.06640625)"/>
<path d="M0 0 C14.44937004 -0.27393482 28.51964939 0.44041366 42.875 2.0625 C44.37285538 2.22714249 44.37285538 2.22714249 45.90097046 2.39511108 C114.64072442 9.97334483 183.42694067 22.64888554 249 45 C248.67 45.66 248.34 46.32 248 47 C246.20019531 47.48657227 246.20019531 47.48657227 243.828125 47.81640625 C242.94543945 47.94031738 242.06275391 48.06422852 241.15332031 48.19189453 C240.19522461 48.31419434 239.23712891 48.43649414 238.25 48.5625 C236.78578613 48.75755127 236.78578613 48.75755127 235.29199219 48.95654297 C227.38243905 49.95317206 219.4942941 50.46270349 211.52832031 50.70922852 C210.69913086 50.73557373 209.86994141 50.76191895 209.015625 50.7890625 C208.28633789 50.80662598 207.55705078 50.82418945 206.80566406 50.84228516 C204.89893284 50.89732925 204.89893284 50.89732925 203 52 C203.60328125 52.68964844 204.2065625 53.37929687 204.828125 54.08984375 C210.45127392 60.70157853 215.06106403 66.57503659 216.5625 75.25 C215.773545 79.10711333 214.03784737 80.5835305 211 83 C178.08170199 93.92666195 124.41673102 63.95229425 96 50 C88.94458127 46.43811717 81.95440769 42.75489721 75 39 C76 37 76 37 77.69555664 36.42163086 C78.79178345 36.19552124 78.79178345 36.19552124 79.91015625 35.96484375 C80.72838867 35.7956543 81.54662109 35.62646484 82.38964844 35.45214844 C83.27168945 35.28231445 84.15373047 35.11248047 85.0625 34.9375 C85.95614258 34.7612207 86.84978516 34.58494141 87.77050781 34.40332031 C95.84129712 32.88664268 103.79553181 32.22917509 112 32 C110.95199219 31.74605469 109.90398437 31.49210937 108.82421875 31.23046875 C107.44517401 30.88336225 106.06627522 30.53567556 104.6875 30.1875 C103.99720703 30.02185547 103.30691406 29.85621094 102.59570312 29.68554688 C98.83916122 28.72372697 96.56560606 27.88822718 94 25 C91.80882661 24.00459916 91.80882661 24.00459916 89.4375 23.3125 C88.65246094 23.06113281 87.86742187 22.80976562 87.05859375 22.55078125 C85.03315974 21.91384627 85.03315974 21.91384627 83 22 C83 21.34 83 20.68 83 20 C81.515 20.495 81.515 20.495 80 21 C78.31422289 20.38325228 76.64551962 19.71727778 75 19 C74.34 19 73.68 19 73 19 C73 18.34 73 17.68 73 17 C71.515 17.495 71.515 17.495 70 18 C67.98415349 17.38290413 65.98248715 16.71706982 64 16 C63.34 16 62.68 16 62 16 C62 15.34 62 14.68 62 14 C61.01 14.33 60.02 14.66 59 15 C56.65377147 14.38024152 54.32108669 13.70812814 52 13 C50.00511766 12.63729412 48.0062189 12.29359301 46 12 C46 11.34 46 10.68 46 10 C45.443125 10.20625 44.88625 10.4125 44.3125 10.625 C41.29247939 11.11473307 39.84093765 10.13637506 37 9 C35.52525609 8.79790546 34.04495436 8.63431633 32.5625 8.5 C28.78751053 8.14942055 25.57598924 7.30035973 22 6 C17.42650316 4.99770511 12.79870012 4.24532969 8.1875 3.4375 C7.39923828 3.29892578 6.61097656 3.16035156 5.79882812 3.01757812 C3.86597683 2.67786487 1.93300085 2.33886123 0 2 C0 1.34 0 0.68 0 0 Z " fill="#3738BB" transform="translate(761,92)"/>
<path d="M0 0 C0.55091309 0.41862305 1.10182617 0.83724609 1.66943359 1.26855469 C9.70212867 7.40425734 9.70212867 7.40425734 11 10 C7.35318081 9.37422174 4.15714994 8.36702818 0.73828125 6.9609375 C-63.40248114 -18.89648637 -138.24845443 -24.86645936 -203.0625 1.875 C-204.71044081 2.57841635 -206.35720792 3.2846416 -208 4 C-203.11483186 -10.98300172 -184.69887779 -22.066129 -171.44335938 -28.94458008 C-116.07371655 -56.47421752 -46.51504842 -35.65425375 0 0 Z " fill="#3655CD" transform="translate(887,185)"/>
<path d="M0 0 C9.8923775 44.92788113 -6.16990721 88.27743111 -29.77661133 126.24047852 C-32.73396389 130.86698195 -32.73396389 130.86698195 -35 132 C-33.78130157 124.32727411 -32.37082494 116.7088135 -30.8425293 109.09204102 C-24.16810153 75.68229979 -18.00888957 40.30405098 -28.9765625 7.17578125 C-30 4 -30 4 -30 2 C-26.50056733 1.66052975 -23.00037948 1.32955227 -19.5 1 C-18.51773438 0.90460938 -17.53546875 0.80921875 -16.5234375 0.7109375 C-10.98601633 0.19411152 -5.56118702 -0.10592737 0 0 Z " fill="#380FA0" transform="translate(1014,149)"/>
<path d="M0 0 C0 0.99 0 1.98 0 3 C-21.10606819 19.37232945 -46.849659 24.59766525 -73 23 C-81.03306674 21.94594921 -89.059179 18.58309414 -95 13 C-97.53054383 9.58343021 -99.11583401 6.75906061 -98.83203125 2.44921875 C-97.28200938 -2.11352167 -93.09863084 -3.86772878 -89 -6 C-61.42052969 -16.83927589 -27.12874582 -8.2268272 0 0 Z " fill="#3658D0" transform="translate(101,131)"/>
<path d="M0 0 C1.65322266 0.01740234 1.65322266 0.01740234 3.33984375 0.03515625 C4.44457031 0.04417969 5.54929687 0.05320313 6.6875 0.0625 C7.54214844 0.07410156 8.39679688 0.08570313 9.27734375 0.09765625 C10.54825576 3.91039228 10.71527876 7.66034876 10.99609375 11.640625 C11.05889526 12.48305252 11.12169678 13.32548004 11.18640137 14.19343567 C11.38701052 16.8904225 11.58252407 19.58774551 11.77734375 22.28515625 C11.97278714 24.96466103 12.16937563 27.64406878 12.36828613 30.32331848 C12.491789 31.989409 12.61324853 33.65565273 12.7322998 35.32206726 C13.09703918 40.27352074 13.62329633 45.17580908 14.27734375 50.09765625 C14.64384033 49.48994385 15.01033691 48.88223145 15.38793945 48.25610352 C29.65203754 24.63390271 29.65203754 24.63390271 36.90234375 13.73828125 C38.41273214 11.46557419 39.7610235 9.22619876 41.08984375 6.83203125 C42.66215353 4.12584422 43.8658993 2.09283946 46.27734375 0.09765625 C50.40879079 -0.7004642 54.13075933 -0.51513948 58.27734375 0.09765625 C57.58332156 7.73598288 56.15445608 15.12496599 54.58984375 22.62890625 C54.32727783 23.90117065 54.06471191 25.17343506 53.79418945 26.48425293 C53.24208188 29.15737942 52.68706233 31.82987936 52.12988281 34.50195312 C51.41490813 37.93186324 50.70715045 41.36321665 50.0014801 44.79505157 C49.32633403 48.07377987 48.64536206 51.3512887 47.96484375 54.62890625 C47.71065674 55.86419067 47.45646973 57.0994751 47.19458008 58.37219238 C46.95763428 59.50427124 46.72068848 60.6363501 46.4765625 61.80273438 C46.26862061 62.80373169 46.06067871 63.804729 45.84643555 64.83605957 C45.27734375 67.09765625 45.27734375 67.09765625 44.27734375 68.09765625 C41.2773093 68.23943482 38.2797714 68.13994396 35.27734375 68.09765625 C35.89811498 61.61817774 36.94727664 55.38520197 38.34375 49.03125 C38.54209946 48.11175064 38.74044891 47.19225128 38.94480896 46.24488831 C39.57228277 43.34071474 40.20595339 40.43793527 40.83984375 37.53515625 C41.26929245 35.55282364 41.69833284 33.57040252 42.12695312 31.58789062 C43.17236777 26.75677695 44.22333781 21.92690251 45.27734375 17.09765625 C44.89626465 17.70947754 44.51518555 18.32129883 44.12255859 18.95166016 C36.3928535 31.3556775 28.63069643 43.73655285 20.75927734 56.05126953 C20.21352051 56.90575684 19.66776367 57.76024414 19.10546875 58.640625 C18.60184814 59.42268311 18.09822754 60.20474121 17.5793457 61.01049805 C16.52917692 62.69395819 15.57282721 64.43573083 14.6484375 66.19140625 C13.27734375 68.09765625 13.27734375 68.09765625 11.234375 68.5859375 C9.24869792 68.42317708 7.26302083 68.26041667 5.27734375 68.09765625 C4.07606859 65.69510594 4.04350142 63.96421077 3.88842773 61.28076172 C3.82844101 60.27987518 3.76845428 59.27898865 3.70664978 58.24777222 C3.64618973 57.16440582 3.58572968 56.08103943 3.5234375 54.96484375 C3.42567772 53.30438522 3.42567772 53.30438522 3.32594299 51.61038208 C3.11813915 48.06469876 2.91642691 44.51869816 2.71484375 40.97265625 C2.57526999 38.57289336 2.43530116 36.17315341 2.29492188 33.7734375 C1.95113946 27.88176927 1.61236156 21.98982901 1.27734375 16.09765625 C1.07911514 16.70487015 0.88088654 17.31208405 0.676651 17.93769836 C-1.38334223 24.24780851 -3.44346442 30.55787653 -5.50366211 36.86791992 C-6.27290107 39.22402886 -7.04210695 41.58014861 -7.8112793 43.9362793 C-8.91576618 47.31952701 -10.02037135 50.70273608 -11.125 54.0859375 C-11.46981918 55.14226883 -11.81463837 56.19860016 -12.16990662 57.28694153 C-12.65029137 58.75812691 -12.65029137 58.75812691 -13.14038086 60.2590332 C-13.42239853 61.1228511 -13.7044162 61.98666901 -13.99497986 62.87666321 C-14.56572908 64.61868764 -15.14296635 66.35858655 -15.72265625 68.09765625 C-19.02265625 68.09765625 -22.32265625 68.09765625 -25.72265625 68.09765625 C-23.03727089 57.47372294 -19.42209835 47.19667601 -15.84765625 36.84765625 C-14.92260547 34.15981862 -13.99854939 31.47164131 -13.07489014 28.7833252 C-12.47477369 27.03721615 -11.8739142 25.29136229 -11.27227783 23.54577637 C-9.8922233 19.53559632 -8.52542445 15.52215951 -7.19824219 11.49414062 C-6.96692596 10.79218567 -6.73560974 10.09023071 -6.49728394 9.36700439 C-5.88296408 7.49470188 -5.27310022 5.62093895 -4.66357422 3.74707031 C-3.37583468 0.12108446 -3.37583468 0.12108446 0 0 Z " fill="#7B7C7C" transform="translate(423.72265625,247.90234375)"/>
<path d="M0 0 C3.3 0 6.6 0 10 0 C10.12585848 17.36459701 9.9051736 34.65725901 9 52 C9.3309668 51.35788574 9.66193359 50.71577148 10.00292969 50.05419922 C16.1055694 38.22902227 22.2487829 26.43045011 28.625 14.75 C29.1209668 13.8410498 29.61693359 12.93209961 30.12792969 11.99560547 C31.03149938 10.34760691 31.94650692 8.70579665 32.87597656 7.07226562 C34.12257551 4.87726964 34.12257551 4.87726964 35.2109375 1.890625 C35.80132812 1.26671875 36.39171875 0.6428125 37 0 C40.3 0 43.6 0 47 0 C47 16.5 47 33 47 50 C52.19286335 39.86215811 52.19286335 39.86215811 57.37866211 29.72070312 C61.13156803 22.39998082 64.97448311 15.141578 69.00390625 7.96875 C69.38965317 7.28171997 69.77540009 6.59468994 70.1728363 5.88684082 C72.86735612 1.13264388 72.86735612 1.13264388 74 0 C75.68608966 -0.07205511 77.37500659 -0.08386068 79.0625 -0.0625 C79.98160156 -0.05347656 80.90070313 -0.04445312 81.84765625 -0.03515625 C82.55792969 -0.02355469 83.26820313 -0.01195312 84 0 C72.8665197 23.25578944 59.73858497 45.59841307 47 68 C43.37 68 39.74 68 36 68 C36.33 51.5 36.66 35 37 18 C34.40125 22.90875 31.8025 27.8175 29.125 32.875 C22.87714631 44.65584723 16.56254332 56.39058676 10 68 C6.37 68 2.74 68 -1 68 C-1.0687317 52.53345884 -0.86737786 37.08692316 -0.5 21.625 C-0.45159433 19.5091198 -0.40341633 17.39323438 -0.35546875 15.27734375 C-0.23958752 10.18483218 -0.12068211 5.09239996 0 0 Z M45 52 C46 54 46 54 46 54 Z " fill="#B6B6B6" transform="translate(162,248)"/>
<path d="M0 0 C3.63 0 7.26 0 11 0 C17.87883209 16.69231951 23.38372413 33.85365165 29 51 C29.21615967 50.1248877 29.43231934 49.24977539 29.6550293 48.34814453 C36.93834796 18.90922197 36.93834796 18.90922197 39.9375 8.0625 C40.13625732 7.33756348 40.33501465 6.61262695 40.53979492 5.86572266 C41.87254307 1.12745693 41.87254307 1.12745693 43 0 C46.00003445 -0.14177857 48.99757235 -0.04228771 52 0 C50.56384452 7.82695392 48.62937754 15.47558975 46.55859375 23.15625 C46.23085464 24.38033569 45.90311554 25.60442139 45.56544495 26.86560059 C44.87693633 29.43426065 44.18722866 32.0025591 43.49536133 34.5703125 C42.6084602 37.86234836 41.72637678 41.15565227 40.84577847 44.44937897 C40.00229893 47.60227329 39.15535143 50.75423476 38.30859375 53.90625 C37.83358681 55.68110779 37.83358681 55.68110779 37.34898376 57.49182129 C36.90831322 59.12492249 36.90831322 59.12492249 36.45874023 60.79101562 C36.20051987 61.75124634 35.9422995 62.71147705 35.67625427 63.70080566 C35 66 35 66 34 68 C30.7 68 27.4 68 24 68 C20.02589143 58.94169667 16.72536461 49.72234214 13.55078125 40.36083984 C12.74141825 37.97469953 11.92586725 35.59074043 11.109375 33.20703125 C10.58818578 31.6798089 10.06733962 30.15246943 9.546875 28.625 C9.18441681 27.56406128 9.18441681 27.56406128 8.81463623 26.48168945 C7.7514255 23.34147559 6.77551013 20.22252098 6 17 C3.84801525 23.2111638 2.00171111 29.45500773 0.3359375 35.8125 C-0.15102725 37.64713924 -0.63800683 39.48177455 -1.125 41.31640625 C-1.88082978 44.17797385 -2.63549917 47.03984454 -3.38964844 49.90185547 C-4.12415411 52.68532003 -4.86268961 55.46769212 -5.6015625 58.25 C-5.82760162 59.11343018 -6.05364075 59.97686035 -6.28652954 60.86645508 C-7.88701356 66.88701356 -7.88701356 66.88701356 -9 68 C-12.00003445 68.14177857 -14.99757235 68.04228771 -18 68 C-15.02871406 54.88485044 -11.66003016 41.88598227 -8.19897461 28.89233398 C-7.30039406 25.51702689 -6.40682268 22.14041935 -5.51367188 18.76367188 C-4.94300199 16.61450534 -4.37204929 14.46541387 -3.80078125 12.31640625 C-3.53413162 11.30824356 -3.26748199 10.30008087 -2.99275208 9.2613678 C-2.7454686 8.33537277 -2.49818512 7.40937775 -2.2434082 6.45532227 C-2.02675003 5.64055923 -1.81009186 4.8257962 -1.58686829 3.98634338 C-1 2 -1 2 0 0 Z " fill="#9D9F9F" transform="translate(820,248)"/>
<path d="M0 0 C5.11588571 3.22572439 9.08526519 7.49062489 10.75 13.375 C13.15871011 26.38700099 9.3066348 39.37412655 2.375 50.4375 C-4.40838395 59.62495681 -12.40651298 65.84138939 -23.625 68.4375 C-26.48605106 68.72088677 -29.31403281 68.76277097 -32.1875 68.75 C-32.91646484 68.76611328 -33.64542969 68.78222656 -34.39648438 68.79882812 C-40.55304603 68.80436958 -44.5779762 67.19889258 -49.3125 63.125 C-55.24956742 56.22516488 -56.27847171 49.22306409 -55.625 40.4375 C-53.55665231 27.43144925 -47.93354 15.10293321 -37.53125 6.7578125 C-35.28890695 5.1708021 -33.02186216 3.77879042 -30.625 2.4375 C-29.51898438 1.81488281 -29.51898438 1.81488281 -28.390625 1.1796875 C-20.25057042 -2.72644607 -8.43452684 -3.74687635 0 0 Z M-36.625 18.4375 C-42.55542569 28.50415793 -45.687289 37.68694936 -44.625 49.4375 C-43.09959367 53.70863772 -41.08889885 56.51483535 -37.625 59.4375 C-31.81253277 61.37498908 -25.08796032 61.48244939 -19.4375 58.9375 C-9.19113026 52.90282825 -4.41341432 43.66202802 -0.25 32.875 C1.0785344 25.5680608 1.51258935 18.67146185 -2.375 12.09765625 C-4.99572046 8.61701189 -7.56544718 6.81164022 -11.8828125 6.02734375 C-21.87720327 5.41640137 -30.73966369 10.50884399 -36.625 18.4375 Z " fill="#CACACB" transform="translate(129.625,248.5625)"/>
<path d="M0 0 C4.12585636 3.39469194 6.91715162 7.1353719 8.54296875 12.26953125 C10.00899971 28.78794981 5.82418182 40.9544794 -3.70703125 54.45703125 C-12.57213045 63.52360998 -21.52422817 67.50047515 -34.01953125 67.70703125 C-41.91230604 67.66096447 -46.97640223 66.65608922 -52.76953125 61.01953125 C-58.10521445 52.32434382 -58.80591834 43.85392924 -56.765625 33.89453125 C-53.02551796 20.62419329 -45.64619924 8.83651141 -33.75 1.5234375 C-24.28334746 -3.65338612 -9.66309264 -6.03676648 0 0 Z M-36.49609375 14.71484375 C-44.33912942 24.93266313 -47.34748935 35.50099811 -46.45703125 48.26953125 C-44.95042164 52.56336864 -42.93164568 55.33782532 -39.45703125 58.26953125 C-33.24687119 60.3395846 -27.30664066 60.01922034 -21.33203125 57.33203125 C-10.79748059 51.42805231 -5.36398586 41.40563022 -2.14453125 30.08203125 C-0.8556076 22.93436371 -0.79782817 16.76677766 -4.45703125 10.26953125 C-9.44274794 5.52702025 -12.87192611 4.90382244 -19.578125 5 C-26.66882422 5.66385108 -31.68812018 9.678824 -36.49609375 14.71484375 Z " fill="#474849" transform="translate(685.45703125,249.73046875)"/>
<path d="M0 0 C5.41511937 4.45547796 8.20205312 9.43942792 9.29296875 16.33203125 C10.52938871 30.16161742 4.91671714 43.07803476 -3.3515625 53.859375 C-9.06736006 60.40231951 -16.92295068 65.39116991 -25.45703125 67.26953125 C-43.10841443 68.36823979 -43.10841443 68.36823979 -48.87890625 64.7421875 C-53.92488595 60.03343911 -57.12883785 54.51711126 -57.66015625 47.640625 C-57.89727506 32.80093945 -52.92345094 19.0826751 -42.58984375 8.23828125 C-31.97832808 -1.55696398 -13.50945414 -8.43968106 0 0 Z M-36.49609375 14.71484375 C-44.33912942 24.93266313 -47.34748935 35.50099811 -46.45703125 48.26953125 C-44.95042164 52.56336864 -42.93164568 55.33782532 -39.45703125 58.26953125 C-33.24687119 60.3395846 -27.30664066 60.01922034 -21.33203125 57.33203125 C-11.38834849 51.77480823 -5.24489072 41.98345313 -2.14453125 31.20703125 C-0.85076898 23.79730186 -0.5983769 16.98419747 -4.45703125 10.26953125 C-9.44274794 5.52702025 -12.87192611 4.90382244 -19.578125 5 C-26.66882422 5.66385108 -31.68812018 9.678824 -36.49609375 14.71484375 Z " fill="#676869" transform="translate(551.45703125,249.73046875)"/>
<path d="M0 0 C2.60060821 5.20121641 3.20931406 10.34693142 1.4375 15.9375 C-1.61686135 22.92487459 -7.07487901 28.0773682 -13.5625 31.875 C-12.8509375 32.7721875 -12.8509375 32.7721875 -12.125 33.6875 C-9.51584833 37.34031234 -9.44269624 40.27366007 -9.46484375 44.63671875 C-9.46806641 45.75498047 -9.47128906 46.87324219 -9.47460938 48.02539062 C-9.48717773 49.77625977 -9.48717773 49.77625977 -9.5 51.5625 C-9.50451172 52.74134766 -9.50902344 53.92019531 -9.51367188 55.13476562 C-9.52546727 58.04822789 -9.5419273 60.96158863 -9.5625 63.875 C-12.8625 63.875 -16.1625 63.875 -19.5625 63.875 C-19.61857422 61.57982422 -19.61857422 61.57982422 -19.67578125 59.23828125 C-19.74144943 57.22133 -19.80789648 55.20440401 -19.875 53.1875 C-19.90883789 51.67639648 -19.90883789 51.67639648 -19.94335938 50.13476562 C-20.08247533 42.96178551 -20.08247533 42.96178551 -23.5625 36.875 C-26.57028521 35.87240493 -29.10070647 35.57185358 -32.25 35.3125 C-33.24386719 35.22871094 -34.23773437 35.14492188 -35.26171875 35.05859375 C-36.40060547 34.96771484 -36.40060547 34.96771484 -37.5625 34.875 C-37.66433594 35.968125 -37.76617188 37.06125 -37.87109375 38.1875 C-38.54522329 43.58053631 -40.07992122 48.67693913 -41.625 53.875 C-41.90666016 54.84050781 -42.18832031 55.80601562 -42.47851562 56.80078125 C-43.16772667 59.16045296 -43.86435394 61.51795641 -44.5625 63.875 C-47.8625 63.875 -51.1625 63.875 -54.5625 63.875 C-53.09228561 56.04970958 -51.19331436 48.40473951 -49.12109375 40.71875 C-48.79335464 39.49466431 -48.46561554 38.27057861 -48.12794495 37.00939941 C-47.43943633 34.44073935 -46.74972866 31.8724409 -46.05786133 29.3046875 C-45.1709602 26.01265164 -44.28887678 22.71934773 -43.40827847 19.42562103 C-42.56479893 16.27272671 -41.71785143 13.12076524 -40.87109375 9.96875 C-40.55442245 8.78551147 -40.23775116 7.60227295 -39.91148376 6.38317871 C-39.6177034 5.29444458 -39.32392303 4.20571045 -39.02124023 3.08398438 C-38.76301987 2.12375366 -38.5047995 1.16352295 -38.23875427 0.17419434 C-37.5625 -2.125 -37.5625 -2.125 -36.5625 -4.125 C-25.11912273 -6.09799608 -9.52419594 -7.8981137 0 0 Z M-27.5625 2.875 C-29.961396 7.30848974 -31.5134066 11.6979244 -32.75 16.5625 C-32.92724609 17.22572266 -33.10449219 17.88894531 -33.28710938 18.57226562 C-34.03162746 21.42673073 -34.5625 23.91203505 -34.5625 26.875 C-23.28751366 27.667008 -23.28751366 27.667008 -13.5625 22.875 C-9.96180472 19.27430472 -8.35833847 15.91531029 -7.5625 10.875 C-8.70141821 7.32425498 -9.4349492 5.46251331 -12.7890625 3.71484375 C-15.95702816 2.75553021 -18.57160237 2.67739785 -21.875 2.75 C-22.94363281 2.76804688 -24.01226563 2.78609375 -25.11328125 2.8046875 C-26.32564453 2.83949219 -26.32564453 2.83949219 -27.5625 2.875 Z " fill="#4F5151" transform="translate(758.5625,252.125)"/>
<path d="M0 0 C3.51577934 4.54121499 3.01777038 9.39960814 2.5 14.9375 C0.35362344 22.83944684 -5.94521511 27.56764341 -12.5 31.9375 C-12.0155542 32.63061279 -11.5311084 33.32372559 -11.03198242 34.0378418 C-9.26446152 37.38331522 -9.07747213 39.56817622 -8.98828125 43.33203125 C-8.95283203 44.53408203 -8.91738281 45.73613281 -8.88085938 46.97460938 C-8.84702148 48.84342773 -8.84702148 48.84342773 -8.8125 50.75 C-8.77833984 52.01521484 -8.74417969 53.28042969 -8.70898438 54.58398438 C-8.62662871 57.70173445 -8.55743471 60.81920759 -8.5 63.9375 C-12.13 63.9375 -15.76 63.9375 -19.5 63.9375 C-19.54898438 62.23980469 -19.59796875 60.54210937 -19.6484375 58.79296875 C-19.72346444 56.57029577 -19.7990123 54.34764034 -19.875 52.125 C-19.9059375 51.00544922 -19.936875 49.88589844 -19.96875 48.73242188 C-20.02675781 47.12270508 -20.02675781 47.12270508 -20.0859375 45.48046875 C-20.1173584 44.49071045 -20.1487793 43.50095215 -20.18115234 42.48120117 C-20.33773433 39.69674906 -20.33773433 39.69674906 -22.5 36.9375 C-25.50778521 35.93490493 -28.03820647 35.63435358 -31.1875 35.375 C-32.18136719 35.29121094 -33.17523438 35.20742188 -34.19921875 35.12109375 C-35.33810547 35.03021484 -35.33810547 35.03021484 -36.5 34.9375 C-36.726875 36.195625 -36.95375 37.45375 -37.1875 38.75 C-38.87124309 47.242456 -41.25213249 55.58092384 -43.5 63.9375 C-46.8 63.9375 -50.1 63.9375 -53.5 63.9375 C-52.8428176 56.48114087 -50.91297031 49.48975958 -48.9375 42.28515625 C-48.58222246 40.97629387 -48.22732977 39.66732697 -47.87280273 38.35826111 C-47.13313255 35.63169694 -46.38977631 32.90617471 -45.64355469 30.18139648 C-44.68581309 26.68360214 -43.73601785 23.18370964 -42.78874207 19.68306828 C-42.0587566 16.98785879 -41.32536803 14.29358511 -40.59085083 11.59960747 C-40.0680477 9.68052054 -39.5475611 7.76080302 -39.02709961 5.84107971 C-38.7100708 4.68575241 -38.39304199 3.53042511 -38.06640625 2.34008789 C-37.78740479 1.31830948 -37.50840332 0.29653107 -37.22094727 -0.75621033 C-36.5 -3.0625 -36.5 -3.0625 -35.5 -4.0625 C-24.07961465 -5.83462876 -9.51873596 -7.85295717 0 0 Z M-28.5 3.9375 C-29.24810107 5.79487664 -29.24810107 5.79487664 -29.7890625 8.05078125 C-30.00820313 8.88673828 -30.22734375 9.72269531 -30.453125 10.58398438 C-30.67484375 11.46376953 -30.8965625 12.34355469 -31.125 13.25 C-31.35445313 14.11818359 -31.58390625 14.98636719 -31.8203125 15.88085938 C-32.82057028 19.75983522 -33.5 22.89121367 -33.5 26.9375 C-22.65038632 27.79742545 -22.65038632 27.79742545 -13.0546875 23.48828125 C-9.39688211 19.83966632 -7.70702585 16.46431567 -7 11.25 C-7.58392466 7.38149912 -8.39832841 6.24159889 -11.5 3.9375 C-14.73872132 2.85792623 -17.16028205 2.80423216 -20.5625 2.8125 C-21.62597656 2.80992187 -22.68945312 2.80734375 -23.78515625 2.8046875 C-26.46704384 2.75311545 -26.46704384 2.75311545 -28.5 3.9375 Z " fill="#959596" transform="translate(358.5,252.0625)"/>
<path d="M0 0 C-1.875 5.75 -1.875 5.75 -3 8 C-3.78503906 7.855625 -4.57007813 7.71125 -5.37890625 7.5625 C-17.13790436 5.48483653 -27.31362004 5.18987952 -37.8125 11.6875 C-45.61925788 17.34739946 -50.07401681 25.41955744 -52.75 34.5625 C-53.4429823 41.31907742 -53.38304744 45.93384598 -50 52 C-44.57190593 57.42809407 -38.92962823 58.21839982 -31.5625 58.265625 C-28.20571541 57.91766562 -26.00604117 57.62997873 -23 56 C-21.51334815 53.08511696 -20.83612485 50.05557897 -20.125 46.875 C-19.91359375 46.02550781 -19.7021875 45.17601562 -19.484375 44.30078125 C-18.96658193 42.20607293 -18.48022465 40.10363896 -18 38 C-22.29 38 -26.58 38 -31 38 C-30.125 31.125 -30.125 31.125 -29 30 C-27.29227642 29.91286169 -25.58101351 29.89299993 -23.87109375 29.90234375 C-22.83662109 29.90556641 -21.80214844 29.90878906 -20.73632812 29.91210938 C-19.64771484 29.92048828 -18.55910156 29.92886719 -17.4375 29.9375 C-15.7987793 29.94426758 -15.7987793 29.94426758 -14.12695312 29.95117188 C-11.41791505 29.96300174 -8.70898401 29.97948457 -6 30 C-7.30383425 37.56113214 -8.78306047 45.05083019 -10.625 52.5 C-10.83511719 53.47453125 -11.04523437 54.4490625 -11.26171875 55.453125 C-12.98437379 62.26843782 -12.98437379 62.26843782 -15.78417969 64.28515625 C-17.86064792 65.10348833 -19.80549442 65.60630396 -22 66 C-22.98613281 66.22042969 -23.97226562 66.44085938 -24.98828125 66.66796875 C-35.35875727 67.81127674 -46.73406524 68.52081827 -56 63 C-61.00668018 58.72303839 -63.71378397 54.03854923 -64.3359375 47.43359375 C-64.48305693 32.38327646 -60.65692616 21.20387918 -50.5 9.875 C-37.3575082 -2.76201135 -16.80094639 -7.07408269 0 0 Z " fill="#D6D7D7" transform="translate(946,250)"/>
<path d="M0 0 C12.54 0 25.08 0 38 0 C37.34 2.64 36.68 5.28 36 8 C26.76 8 17.52 8 8 8 C6.72708144 13.45923269 6.72708144 13.45923269 5.45727539 18.91918945 C5.21738892 19.94338989 5.21738892 19.94338989 4.97265625 20.98828125 C4.81031494 21.68477783 4.64797363 22.38127441 4.48071289 23.09887695 C4.06234435 24.7534406 3.53968631 26.38094108 3 28 C11.58 28 20.16 28 29 28 C28.34 30.97 27.68 33.94 27 37 C18.09 37 9.18 37 0 37 C-0.66 40.3 -1.32 43.6 -2 47 C-2.99 50.96 -3.98 54.92 -5 59 C8.86 59.495 8.86 59.495 23 60 C22 67 22 67 21 68 C18.1156618 68.08865208 15.25537842 68.11521296 12.37109375 68.09765625 C11.07474754 68.09553383 11.07474754 68.09553383 9.75221252 68.09336853 C6.98060708 68.08775239 4.2090812 68.07519719 1.4375 68.0625 C-0.4368478 68.05748708 -2.31119685 68.05292381 -4.18554688 68.04882812 C-8.79039544 68.03777772 -13.39518421 68.0205023 -18 68 C-14.73690387 53.34561516 -10.75672748 38.90320273 -6.75 24.4375 C-6.09345837 22.05802316 -5.4372063 19.6784664 -4.78125 17.29882812 C-3.19136281 11.5314722 -1.59556702 5.76579901 0 0 Z " fill="#A4A5A5" transform="translate(263,248)"/>
<path d="M0 0 C3.36832705 4.21040881 3.47194001 8.29958416 3 13.5 C1.65195027 21.11648098 -2.29637086 26.40052547 -8 31.5 C-16.9240384 37.61046343 -26.54164594 37.78696703 -37 37.5 C-37.09796875 38.04785156 -37.1959375 38.59570312 -37.296875 39.16015625 C-38.33959238 44.68835613 -39.62554422 50.12584408 -41.0625 55.5625 C-41.2368457 56.22967041 -41.41119141 56.89684082 -41.59082031 57.58422852 C-42.87721094 62.37721094 -42.87721094 62.37721094 -44 63.5 C-45.68608966 63.57205511 -47.37500659 63.58386068 -49.0625 63.5625 C-50.44115234 63.54896484 -50.44115234 63.54896484 -51.84765625 63.53515625 C-52.55792969 63.52355469 -53.26820312 63.51195312 -54 63.5 C-43.26490393 22.18402443 -43.26490393 22.18402443 -38.875 6.4375 C-38.59261475 5.41793213 -38.31022949 4.39836426 -38.01928711 3.34790039 C-37.76284424 2.4377417 -37.50640137 1.52758301 -37.2421875 0.58984375 C-37.0241748 -0.18496338 -36.80616211 -0.95977051 -36.58154297 -1.75805664 C-36 -3.5 -36 -3.5 -35 -4.5 C-23.437287 -6.58128834 -9.51154916 -7.92629097 0 0 Z M-28 3.5 C-29.34654669 7.01112775 -30.21528151 10.68212179 -31.1875 14.3125 C-31.47302734 15.32376953 -31.75855469 16.33503906 -32.05273438 17.37695312 C-32.31763672 18.35212891 -32.58253906 19.32730469 -32.85546875 20.33203125 C-33.09934326 21.22639893 -33.34321777 22.1207666 -33.59448242 23.04223633 C-34.01272776 25.57714049 -33.82084336 27.09146816 -33 29.5 C-25.24062386 29.98496101 -19.01971173 28.97576393 -12.6875 24.25 C-9.21087099 20.69251915 -7.1312109 17.46864654 -6.90625 12.37890625 C-7.14598033 9.11258047 -7.54960583 6.98145584 -9.8125 4.5625 C-13.59551452 2.7250358 -16.93907532 2.3625047 -21.125 2.375 C-21.99382813 2.37242187 -22.86265625 2.36984375 -23.7578125 2.3671875 C-26.03719449 2.35462066 -26.03719449 2.35462066 -28 3.5 Z " fill="#DCDCDC" transform="translate(61,252.5)"/>
<path d="M0 0 C1.35568336 0.00333092 1.35568336 0.00333092 2.73875427 0.00672913 C3.75973709 0.00680466 4.78071991 0.00688019 5.8326416 0.00695801 C6.94304306 0.01211929 8.05344452 0.01728058 9.19749451 0.02259827 C10.89336952 0.02472069 10.89336952 0.02472069 12.62350464 0.02688599 C16.25105891 0.03250433 19.8785525 0.04505994 23.50608826 0.05775452 C25.95856133 0.06276715 28.41103536 0.06733047 30.86351013 0.07142639 C36.89022371 0.08247971 42.91690165 0.09923568 48.94358826 0.12025452 C48.06858826 5.87025452 48.06858826 5.87025452 46.94358826 8.12025452 C40.01358826 8.12025452 33.08358826 8.12025452 25.94358826 8.12025452 C25.54152161 10.48576477 25.54152161 10.48576477 25.1313324 12.89906311 C24.03597845 18.91195419 22.55197979 24.76700831 20.93968201 30.65931702 C20.65633499 31.70679108 20.37298798 32.75426514 20.08105469 33.83348083 C19.48738793 36.02390894 18.89149181 38.21373396 18.29344177 40.40296936 C17.37451118 43.76934875 16.46424407 47.13798872 15.55491638 50.50697327 C14.97534616 52.64122584 14.39528602 54.77534544 13.81468201 56.90931702 C13.4052964 58.4247258 13.4052964 58.4247258 12.98764038 59.9707489 C12.73390152 60.89616486 12.48016266 61.82158081 12.21873474 62.77503967 C11.99604416 63.59235565 11.77335358 64.40967163 11.54391479 65.25175476 C10.94358826 67.12025452 10.94358826 67.12025452 9.94358826 68.12025452 C8.2574986 68.19230963 6.56858166 68.20411519 4.88108826 68.18275452 C3.50243591 68.16921936 3.50243591 68.16921936 2.09593201 68.15541077 C1.03052185 68.13800842 1.03052185 68.13800842 -0.05641174 68.12025452 C5.03992238 48.04985024 10.23735897 28.027839 15.94358826 8.12025452 C9.34358826 8.12025452 2.74358826 8.12025452 -4.05641174 8.12025452 C-2.92077548 0.17080064 -2.92077548 0.17080064 0 0 Z " fill="#575859" transform="translate(580.0564117431641,247.87974548339844)"/>
<path d="M0 0 C3.3 0 6.6 0 10 0 C7.08165609 12.97165456 3.69812365 25.79949526 0.19897461 38.62548828 C-0.6990927 41.91749487 -1.59304234 45.21059929 -2.48632812 48.50390625 C-3.05705891 50.60422993 -3.62801391 52.7044927 -4.19921875 54.8046875 C-4.46586838 55.78581512 -4.73251801 56.76694275 -5.00724792 57.77780151 C-5.2545314 58.68370026 -5.50181488 59.589599 -5.7565918 60.52294922 C-5.97324997 61.31772675 -6.18990814 62.11250427 -6.41313171 62.93136597 C-6.896326 64.63456268 -7.44014683 66.32044048 -8 68 C-11.3 68 -14.6 68 -18 68 C-16.52978561 60.17470958 -14.63081436 52.52973951 -12.55859375 44.84375 C-12.23085464 43.61966431 -11.90311554 42.39557861 -11.56544495 41.13439941 C-10.87693633 38.56573935 -10.18722866 35.9974409 -9.49536133 33.4296875 C-8.6084602 30.13765164 -7.72637678 26.84434773 -6.84577847 23.55062103 C-6.00229893 20.39772671 -5.15535143 17.24576524 -4.30859375 14.09375 C-3.99192245 12.91051147 -3.67525116 11.72727295 -3.34898376 10.50817871 C-3.0552034 9.41944458 -2.76142303 8.33071045 -2.45874023 7.20898438 C-2.20051987 6.24875366 -1.9422995 5.28852295 -1.67625427 4.29919434 C-1 2 -1 2 0 0 Z " fill="#747676" transform="translate(786,248)"/>
<path d="M0 0 C2.475 0.495 2.475 0.495 5 1 C6.32 6.61 7.64 12.22 9 18 C10.65 12.06 12.3 6.12 14 0 C15.65 0 17.3 0 19 0 C21.475 8.415 21.475 8.415 24 17 C25.27378076 12.15419788 25.27378076 12.15419788 26.54272461 7.30712891 C27.88888889 2.22222222 27.88888889 2.22222222 29 0 C30.32 0 31.64 0 33 0 C31.38949895 9.22377877 28.71861481 18.05554976 26 27 C24.35 27 22.7 27 21 27 C19.35 21.39 17.7 15.78 16 10 C14.35 15.61 12.7 21.22 11 27 C9.35 27 7.7 27 6 27 C4.99198324 23.2521079 3.99498711 19.50137033 3 15.75 C2.71382812 14.68652344 2.42765625 13.62304688 2.1328125 12.52734375 C1.86210938 11.50253906 1.59140625 10.47773438 1.3125 9.421875 C1.06113281 8.47924805 0.80976562 7.53662109 0.55078125 6.56542969 C0 4 0 4 0 0 Z " fill="#0778DD" transform="translate(758,371)"/>
<path d="M0 0 C2.475 0.495 2.475 0.495 5 1 C6.32 6.61 7.64 12.22 9 18 C10.65 12.06 12.3 6.12 14 0 C15.65 0 17.3 0 19 0 C21.475 8.415 21.475 8.415 24 17 C25.27378076 12.15419788 25.27378076 12.15419788 26.54272461 7.30712891 C27.88888889 2.22222222 27.88888889 2.22222222 29 0 C30.32 0 31.64 0 33 0 C31.38949895 9.22377877 28.71861481 18.05554976 26 27 C24.35 27 22.7 27 21 27 C19.35 21.39 17.7 15.78 16 10 C14.35 15.61 12.7 21.22 11 27 C9.35 27 7.7 27 6 27 C4.99198324 23.2521079 3.99498711 19.50137033 3 15.75 C2.71382813 14.68652344 2.42765625 13.62304688 2.1328125 12.52734375 C1.86210937 11.50253906 1.59140625 10.47773438 1.3125 9.421875 C1.06113281 8.47924805 0.80976563 7.53662109 0.55078125 6.56542969 C0 4 0 4 0 0 Z " fill="#0778DD" transform="translate(325,371)"/>
<path d="M0 0 C1.65 0 3.3 0 5 0 C6.57739258 1.65234375 6.57739258 1.65234375 7.89453125 3.9375 C8.37470703 4.74960937 8.85488281 5.56171875 9.34960938 6.3984375 C9.83236328 7.25695312 10.31511719 8.11546875 10.8125 9 C11.31458984 9.85851562 11.81667969 10.71703125 12.33398438 11.6015625 C13.5725426 13.72480517 14.78845402 15.86122881 16 18 C16.33 12.06 16.66 6.12 17 0 C18.32 0 19.64 0 21 0 C21 8.91 21 17.82 21 27 C16 27 16 27 14.42260742 25.43945312 C13.98795166 24.72724609 13.5532959 24.01503906 13.10546875 23.28125 C12.62529297 22.51425781 12.14511719 21.74726563 11.65039062 20.95703125 C11.16763672 20.14621094 10.68488281 19.33539063 10.1875 18.5 C9.68541016 17.68917969 9.18332031 16.87835938 8.66601562 16.04296875 C7.42794798 14.03847828 6.21184616 12.02045104 5 10 C4.67 15.61 4.34 21.22 4 27 C2.68 27 1.36 27 0 27 C0 18.09 0 9.18 0 0 Z M3 6 C4 8 4 8 4 8 Z " fill="#0778DD" transform="translate(698,371)"/>
<path d="M0 0 C1.65 0 3.3 0 5 0 C6.57739258 1.65234375 6.57739258 1.65234375 7.89453125 3.9375 C8.37470703 4.74960937 8.85488281 5.56171875 9.34960938 6.3984375 C9.83236328 7.25695312 10.31511719 8.11546875 10.8125 9 C11.31458984 9.85851562 11.81667969 10.71703125 12.33398438 11.6015625 C13.5725426 13.72480517 14.78845402 15.86122881 16 18 C16.33 12.06 16.66 6.12 17 0 C18.32 0 19.64 0 21 0 C21 8.91 21 17.82 21 27 C16 27 16 27 14.42260742 25.43945312 C13.98795166 24.72724609 13.5532959 24.01503906 13.10546875 23.28125 C12.62529297 22.51425781 12.14511719 21.74726563 11.65039062 20.95703125 C11.16763672 20.14621094 10.68488281 19.33539063 10.1875 18.5 C9.68541016 17.68917969 9.18332031 16.87835938 8.66601562 16.04296875 C7.42794798 14.03847828 6.21184616 12.02045104 5 10 C4.67 15.61 4.34 21.22 4 27 C2.68 27 1.36 27 0 27 C0 18.09 0 9.18 0 0 Z M3 6 C4 8 4 8 4 8 Z " fill="#0778DD" transform="translate(33,371)"/>
<path d="M0 0 C3.12177233 1.68287927 5.39137035 3.7827407 7 7 C7.14851844 8.93359586 7.22130833 10.87342097 7.25 12.8125 C7.27578125 13.85019531 7.3015625 14.88789063 7.328125 15.95703125 C6.85887941 20.30872546 5.26732877 22.77554071 2.15234375 25.78515625 C-1.9377583 28.09372565 -6.45811012 27.61322252 -11 27 C-14.70114248 24.88506144 -16.38227899 22.87272607 -18 19 C-18.7112188 14.06281836 -18.62448698 9.45917437 -16.25 5 C-12.01205895 -0.65058806 -6.73221798 -1.07079373 0 0 Z M-13 8 C-14.20710522 12.07398012 -14.27759847 14.90412307 -12.75 18.8125 C-11.21506312 22.19058237 -11.21506312 22.19058237 -8 24 C-3.25149477 23.76062207 -3.25149477 23.76062207 0.875 21.625 C3.42953905 17.93511027 3.2990097 14.33564058 3 10 C1.34860695 6.4613006 0.28394771 5.18929847 -3 3 C-8.01111116 2.07690058 -10.01886506 4.10796271 -13 8 Z " fill="#0778DD" transform="translate(744,371)"/>
<path d="M0 0 C3.12177233 1.68287927 5.39137035 3.7827407 7 7 C7.14851844 8.93359586 7.22130833 10.87342097 7.25 12.8125 C7.27578125 13.85019531 7.3015625 14.88789063 7.328125 15.95703125 C6.85887941 20.30872546 5.26732877 22.77554071 2.15234375 25.78515625 C-1.9377583 28.09372565 -6.45811012 27.61322252 -11 27 C-14.70114248 24.88506144 -16.38227899 22.87272607 -18 19 C-18.7112188 14.06281836 -18.62448698 9.45917437 -16.25 5 C-12.01205895 -0.65058806 -6.73221798 -1.07079373 0 0 Z M-13 8 C-14.20710522 12.07398012 -14.27759847 14.90412307 -12.75 18.8125 C-11.21506312 22.19058237 -11.21506312 22.19058237 -8 24 C-3.25149477 23.76062207 -3.25149477 23.76062207 0.875 21.625 C3.42953905 17.93511027 3.2990097 14.33564058 3 10 C1.34860695 6.4613006 0.28394771 5.18929847 -3 3 C-8.01111116 2.07690058 -10.01886506 4.10796271 -13 8 Z " fill="#0778DD" transform="translate(442,371)"/>
<path d="M0 0 C3.12177233 1.68287927 5.39137035 3.7827407 7 7 C7.14851844 8.93359586 7.22130833 10.87342097 7.25 12.8125 C7.27578125 13.85019531 7.3015625 14.88789063 7.328125 15.95703125 C6.85887941 20.30872546 5.26732877 22.77554071 2.15234375 25.78515625 C-1.9377583 28.09372565 -6.45811012 27.61322252 -11 27 C-14.70114248 24.88506144 -16.38227899 22.87272607 -18 19 C-18.7112188 14.06281836 -18.62448698 9.45917437 -16.25 5 C-12.01205895 -0.65058806 -6.73221798 -1.07079373 0 0 Z M-13 8 C-14.20710522 12.07398012 -14.27759847 14.90412307 -12.75 18.8125 C-11.21506312 22.19058237 -11.21506312 22.19058237 -8 24 C-3.25149477 23.76062207 -3.25149477 23.76062207 0.875 21.625 C3.42953905 17.93511027 3.2990097 14.33564058 3 10 C1.34860695 6.4613006 0.28394771 5.18929847 -3 3 C-8.01111116 2.07690058 -10.01886506 4.10796271 -13 8 Z " fill="#0778DD" transform="translate(311,371)"/>
<path d="M0 0 C3.12177233 1.68287927 5.39137035 3.7827407 7 7 C7.14851844 8.93359586 7.22130833 10.87342097 7.25 12.8125 C7.27578125 13.85019531 7.3015625 14.88789063 7.328125 15.95703125 C6.85887941 20.30872546 5.26732877 22.77554071 2.15234375 25.78515625 C-1.9377583 28.09372565 -6.45811012 27.61322252 -11 27 C-14.70114248 24.88506144 -16.38227899 22.87272607 -18 19 C-18.7112188 14.06281836 -18.62448698 9.45917437 -16.25 5 C-12.01205895 -0.65058806 -6.73221798 -1.07079373 0 0 Z M-13 8 C-14.20710522 12.07398012 -14.27759847 14.90412307 -12.75 18.8125 C-11.21506312 22.19058237 -11.21506312 22.19058237 -8 24 C-3.25149477 23.76062207 -3.25149477 23.76062207 0.875 21.625 C3.42953905 17.93511027 3.2990097 14.33564058 3 10 C1.34860695 6.4613006 0.28394771 5.18929847 -3 3 C-8.01111116 2.07690058 -10.01886506 4.10796271 -13 8 Z " fill="#0778DD" transform="translate(101,371)"/>
<path d="M0 0 C2.206875 -0.061875 4.41375 -0.12375 6.6875 -0.1875 C8.54955078 -0.23970703 8.54955078 -0.23970703 10.44921875 -0.29296875 C15.1500572 0.09488921 17.52495615 1.49590714 20.78515625 4.8203125 C23.21145691 9.17361079 22.57958496 14.18300502 22 19 C19.57275768 24.21407609 18.49438039 24.80224784 13 27 C8.71 27 4.42 27 0 27 C0 18.09 0 9.18 0 0 Z M4 3 C4 9.93 4 16.86 4 24 C10.89661861 24.24689052 10.89661861 24.24689052 16 21 C18.3407964 17.99040463 18.4152601 14.72245475 18.32421875 10.96875 C17.80595067 7.82167637 16.27224598 6.14240335 14 4 C10.4202491 2.63106761 10.4202491 2.63106761 4 3 Z " fill="#0778DD" transform="translate(844,371)"/>
<path d="M0 0 C-0.33 1.32 -0.66 2.64 -1 4 C-2.19625 3.938125 -3.3925 3.87625 -4.625 3.8125 C-8.77173031 3.82720472 -11.52392121 4.59985036 -15 7 C-17.00067561 10.13149226 -17.00562851 11.89118214 -16.8125 15.625 C-16.20117365 18.84584011 -16.20117365 18.84584011 -14.9375 20.875 C-11.338887 22.96451722 -7.11047461 23 -3 23 C-3 20.69 -3 18.38 -3 16 C-4.98 16 -6.96 16 -9 16 C-9 15.01 -9 14.02 -9 13 C-5.7 13 -2.4 13 1 13 C1 17.29 1 21.58 1 26 C-1.80107012 27.40053506 -4.18891681 27.2075504 -7.3125 27.25 C-8.44300781 27.27578125 -9.57351563 27.3015625 -10.73828125 27.328125 C-14.33298421 26.96650219 -16.13470495 26.15661887 -19 24 C-22.08269415 19.42910867 -22.77170542 15.35906545 -22 10 C-20.73232704 6.33783367 -19.35849373 4.35849373 -16.625 1.625 C-11.17152879 -0.81965951 -5.88658645 -0.31441708 0 0 Z " fill="#0778DD" transform="translate(895,371)"/>
<path d="M0 0 C4.29 0 8.58 0 13 0 C17 5 17 5 17.4375 7.5625 C17 10 17 10 15.3125 11.8125 C13.73999123 13.85780167 13.73999123 13.85780167 14.43359375 15.8515625 C14.98255674 17.25417608 15.55873945 18.64640817 16.16015625 20.02734375 C17.13303858 22.31248597 17.61736569 24.55114043 18 27 C16.35 27 14.7 27 13 27 C12.85304688 26.30132812 12.70609375 25.60265625 12.5546875 24.8828125 C11.87413563 22.12149286 11.17228806 19.59363365 10 17 C6.98226415 15.23902514 6.98226415 15.23902514 4 15 C4 18.96 4 22.92 4 27 C2.68 27 1.36 27 0 27 C0 18.09 0 9.18 0 0 Z M4 3 C4 5.97 4 8.94 4 12 C7.43793339 11.81870185 7.43793339 11.81870185 11 11 C12.51294288 9.06402968 12.51294288 9.06402968 13 7 C10.27393696 3.71185401 10.27393696 3.71185401 6.25 2.75 C5.13625 2.87375 5.13625 2.87375 4 3 Z " fill="#0778DD" transform="translate(388,371)"/>
<path d="M0 0 C1.32 0 2.64 0 4 0 C4.33 3.3 4.66 6.6 5 10 C5.50789062 9.278125 6.01578125 8.55625 6.5390625 7.8125 C7.57160156 6.4203125 7.57160156 6.4203125 8.625 5 C9.29789063 4.071875 9.97078125 3.14375 10.6640625 2.1875 C13 0 13 0 16.2734375 -0.3125 C17.17320312 -0.209375 18.07296875 -0.10625 19 0 C14.5 6 14.5 6 10 12 C10.6496875 12.91523438 11.299375 13.83046875 11.96875 14.7734375 C12.81274508 15.97378605 13.65648173 17.17431634 14.5 18.375 C14.92925781 18.97828125 15.35851562 19.5815625 15.80078125 20.203125 C19 24.7734375 19 24.7734375 19 27 C16.73828125 27.3046875 16.73828125 27.3046875 14 27 C11.98046875 24.8828125 11.98046875 24.8828125 10.1875 22.125 C9.58292969 21.22007812 8.97835937 20.31515625 8.35546875 19.3828125 C7 17 7 17 7 15 C6.01 15.495 6.01 15.495 5 16 C4.5316735 18.58605332 4.5316735 18.58605332 4.375 21.5625 C4.26285156 23.08037109 4.26285156 23.08037109 4.1484375 24.62890625 C4.09945312 25.41136719 4.05046875 26.19382812 4 27 C2.68 27 1.36 27 0 27 C0 18.09 0 9.18 0 0 Z " fill="#0778DD" transform="translate(672,371)"/>
<path d="M0 0 C1.32 0 2.64 0 4 0 C4.33 3.3 4.66 6.6 5 10 C5.50789062 9.278125 6.01578125 8.55625 6.5390625 7.8125 C7.57160156 6.4203125 7.57160156 6.4203125 8.625 5 C9.29789063 4.071875 9.97078125 3.14375 10.6640625 2.1875 C13 0 13 0 16.2734375 -0.3125 C17.17320312 -0.209375 18.07296875 -0.10625 19 0 C14.5 6 14.5 6 10 12 C10.6496875 12.91523438 11.299375 13.83046875 11.96875 14.7734375 C12.81274508 15.97378605 13.65648173 17.17431634 14.5 18.375 C14.92925781 18.97828125 15.35851562 19.5815625 15.80078125 20.203125 C19 24.7734375 19 24.7734375 19 27 C16.73828125 27.3046875 16.73828125 27.3046875 14 27 C11.98046875 24.8828125 11.98046875 24.8828125 10.1875 22.125 C9.58292969 21.22007812 8.97835937 20.31515625 8.35546875 19.3828125 C7 17 7 17 7 15 C6.01 15.495 6.01 15.495 5 16 C4.5316735 18.58605332 4.5316735 18.58605332 4.375 21.5625 C4.26285156 23.08037109 4.26285156 23.08037109 4.1484375 24.62890625 C4.09945312 25.41136719 4.05046875 26.19382812 4 27 C2.68 27 1.36 27 0 27 C0 18.09 0 9.18 0 0 Z " fill="#0778DD" transform="translate(143,371)"/>
<path d="M0 0 C1.32 0 2.64 0 4 0 C4 3.63 4 7.26 4 11 C7.96 11 11.92 11 16 11 C16 7.37 16 3.74 16 0 C17.32 0 18.64 0 20 0 C20 8.91 20 17.82 20 27 C18.68 27 17.36 27 16 27 C16 22.71 16 18.42 16 14 C12.04 14 8.08 14 4 14 C4 18.29 4 22.58 4 27 C2.68 27 1.36 27 0 27 C0 18.09 0 9.18 0 0 Z " fill="#0778DD" transform="translate(542,371)"/>
<path d="M0 0 C1.32 0 2.64 0 4 0 C4 3.63 4 7.26 4 11 C7.96 11 11.92 11 16 11 C16 7.37 16 3.74 16 0 C17.32 0 18.64 0 20 0 C20 8.91 20 17.82 20 27 C18.68 27 17.36 27 16 27 C16 22.71 16 18.42 16 14 C12.04 14 8.08 14 4 14 C4 18.29 4 22.58 4 27 C2.68 27 1.36 27 0 27 C0 18.09 0 9.18 0 0 Z " fill="#0778DD" transform="translate(204,371)"/>
<path d="M0 0 C1.32 0 2.64 0 4 0 C4.01458252 0.59014893 4.02916504 1.18029785 4.04418945 1.78833008 C4.11868844 4.46371229 4.21533995 7.13784892 4.3125 9.8125 C4.33505859 10.74126953 4.35761719 11.67003906 4.38085938 12.62695312 C4.41630859 13.51962891 4.45175781 14.41230469 4.48828125 15.33203125 C4.51446533 16.15421143 4.54064941 16.9763916 4.56762695 17.82348633 C5.09526439 20.47954941 5.81442902 21.42778756 8 23 C11.11993606 22.92457659 11.11993606 22.92457659 14 22 C15.17469444 19.65061112 15.20034889 18.04926795 15.31640625 15.4296875 C15.35830078 14.53378906 15.40019531 13.63789063 15.44335938 12.71484375 C15.50233398 11.30912109 15.50233398 11.30912109 15.5625 9.875 C15.60568359 8.93011719 15.64886719 7.98523438 15.69335938 7.01171875 C15.79959072 4.67462908 15.90163176 2.3374317 16 0 C17.32 0 18.64 0 20 0 C20.08745946 3.3956697 20.14054444 6.79104773 20.1875 10.1875 C20.21263672 11.14720703 20.23777344 12.10691406 20.26367188 13.09570312 C20.3568739 22.07416443 20.3568739 22.07416443 17 26 C14.59486979 27.20256511 12.87146436 27.2703777 10.1875 27.375 C9.33542969 27.42398437 8.48335937 27.47296875 7.60546875 27.5234375 C3.58279133 26.71528342 2.32781253 25.37574237 0 22 C-0.60141388 18.20813601 -0.471644 14.51430103 -0.3125 10.6875 C-0.28994141 9.66076172 -0.26738281 8.63402344 -0.24414062 7.57617188 C-0.18537575 5.0492821 -0.10327849 2.52539745 0 0 Z " fill="#0778DD" transform="translate(3,371)"/>
<path d="M0 0 C2.475 0.495 2.475 0.495 5 1 C5.83857688 3.60258324 6.67103344 6.20685647 7.5 8.8125 C7.73847656 9.55048828 7.97695313 10.28847656 8.22265625 11.04882812 C9.19940136 14.13255196 10 16.74495809 10 20 C10.66 20 11.32 20 12 20 C12.0928125 18.6696875 12.0928125 18.6696875 12.1875 17.3125 C13.01386513 11.25248902 15.70801117 5.62425304 18 0 C19.65 0 21.3 0 23 0 C21.52553114 4.31412084 20.04464469 8.62601081 18.5625 12.9375 C18.14162109 14.16919922 17.72074219 15.40089844 17.28710938 16.66992188 C16.88427734 17.83974609 16.48144531 19.00957031 16.06640625 20.21484375 C15.69459229 21.29886475 15.32277832 22.38288574 14.93969727 23.49975586 C14 26 14 26 13 27 C11.33382885 27.04063832 9.66611905 27.042721 8 27 C6.65934762 23.06495351 5.32873929 19.12658354 4 15.1875 C3.6184375 14.06794922 3.236875 12.94839844 2.84375 11.79492188 C2.4828125 10.72177734 2.121875 9.64863281 1.75 8.54296875 C1.41484375 7.55321045 1.0796875 6.56345215 0.734375 5.54370117 C0 3 0 3 0 0 Z " fill="#0778DD" transform="translate(489,371)"/>
<path d="M0 0 C12 0 12 0 15.25 2.125 C17.29832076 5.49009839 17.57659252 7.12859307 17 11 C16.14986429 13.55040714 15.46852322 14.65294576 13.3125 16.25 C10.16454282 17.27095909 7.28456632 17.12632947 4 17 C4 20.3 4 23.6 4 27 C2.68 27 1.36 27 0 27 C0 18.09 0 9.18 0 0 Z M4 3 C4 6.63 4 10.26 4 14 C7.36798609 13.70062346 9.41632905 13.51071208 12 11.25 C13.31037802 8.95682278 13.31037802 8.95682278 12.1875 6.25 C11.5996875 5.13625 11.5996875 5.13625 11 4 C8.69 3.67 6.38 3.34 4 3 Z " fill="#0778DD" transform="translate(270,371)"/>
<path d="M0 0 C0 1.32 0 2.64 0 4 C-1.216875 3.95875 -2.43375 3.9175 -3.6875 3.875 C-7.25023671 3.90017835 -9.90978871 4.05758148 -13 6 C-15.43012576 9.48318025 -16.01952411 11.42403863 -15.875 15.6875 C-14.93811185 19.62518697 -14.93811185 19.62518697 -12 22 C-7.97219469 22.82047886 -4.10445495 23.12437742 0 23 C-0.33 24.32 -0.66 25.64 -1 27 C-2.89510699 27.08160748 -4.79124504 27.13946459 -6.6875 27.1875 C-8.27111328 27.23970703 -8.27111328 27.23970703 -9.88671875 27.29296875 C-13.4104355 26.96137684 -15.18345931 26.10248812 -18 24 C-21.08269415 19.42910867 -21.77170542 15.35906545 -21 10 C-19.71955623 6.30094022 -18.36068771 4.3514393 -15.5625 1.625 C-10.40120626 -0.72927434 -5.58482171 -0.32532942 0 0 Z " fill="#0778DD" transform="translate(605,371)"/>
<path d="M0 0 C0 1.32 0 2.64 0 4 C-1.216875 3.95875 -2.43375 3.9175 -3.6875 3.875 C-7.25023671 3.90017835 -9.90978871 4.05758148 -13 6 C-15.43012576 9.48318025 -16.01952411 11.42403863 -15.875 15.6875 C-14.93811185 19.62518697 -14.93811185 19.62518697 -12 22 C-7.97219469 22.82047886 -4.10445495 23.12437742 0 23 C-0.33 24.32 -0.66 25.64 -1 27 C-2.89510699 27.08160748 -4.79124504 27.13946459 -6.6875 27.1875 C-8.27111328 27.23970703 -8.27111328 27.23970703 -9.88671875 27.29296875 C-13.4104355 26.96137684 -15.18345931 26.10248812 -18 24 C-21.08269415 19.42910867 -21.77170542 15.35906545 -21 10 C-19.71955623 6.30094022 -18.36068771 4.3514393 -15.5625 1.625 C-10.40120626 -0.72927434 -5.58482171 -0.32532942 0 0 Z " fill="#0778DD" transform="translate(135,371)"/>
<path d="M0 0 C4.95 0 9.9 0 15 0 C15 0.99 15 1.98 15 3 C11.37 3 7.74 3 4 3 C4 5.64 4 8.28 4 11 C7.3 11 10.6 11 14 11 C14 11.99 14 12.98 14 14 C10.7 14 7.4 14 4 14 C4 17.3 4 20.6 4 24 C7.96 24 11.92 24 16 24 C16 24.99 16 25.98 16 27 C10.72 27 5.44 27 0 27 C0 18.09 0 9.18 0 0 Z " fill="#0778DD" transform="translate(905,371)"/>
<path d="M0 0 C4.95 0 9.9 0 15 0 C15 0.99 15 1.98 15 3 C11.37 3 7.74 3 4 3 C4 5.64 4 8.28 4 11 C7.3 11 10.6 11 14 11 C14 11.99 14 12.98 14 14 C10.7 14 7.4 14 4 14 C4 17.3 4 20.6 4 24 C7.96 24 11.92 24 16 24 C16 24.99 16 25.98 16 27 C10.72 27 5.44 27 0 27 C0 18.09 0 9.18 0 0 Z " fill="#0778DD" transform="translate(821,371)"/>
<path d="M0 0 C4.95 0 9.9 0 15 0 C15 0.99 15 1.98 15 3 C11.37 3 7.74 3 4 3 C4 5.64 4 8.28 4 11 C7.3 11 10.6 11 14 11 C14 11.99 14 12.98 14 14 C10.7 14 7.4 14 4 14 C4 17.3 4 20.6 4 24 C7.96 24 11.92 24 16 24 C16 24.99 16 25.98 16 27 C10.72 27 5.44 27 0 27 C0 18.09 0 9.18 0 0 Z " fill="#0778DD" transform="translate(636,371)"/>
<path d="M0 0 C4.95 0 9.9 0 15 0 C15 0.99 15 1.98 15 3 C11.37 3 7.74 3 4 3 C4 5.64 4 8.28 4 11 C7.3 11 10.6 11 14 11 C14 11.99 14 12.98 14 14 C10.7 14 7.4 14 4 14 C4 17.3 4 20.6 4 24 C7.96 24 11.92 24 16 24 C16 24.99 16 25.98 16 27 C10.72 27 5.44 27 0 27 C0 18.09 0 9.18 0 0 Z " fill="#0778DD" transform="translate(519,371)"/>
<path d="M0 0 C4.95 0 9.9 0 15 0 C15 0.99 15 1.98 15 3 C11.37 3 7.74 3 4 3 C4 5.64 4 8.28 4 11 C7.3 11 10.6 11 14 11 C14 11.99 14 12.98 14 14 C10.7 14 7.4 14 4 14 C4 17.3 4 20.6 4 24 C7.96 24 11.92 24 16 24 C16 24.99 16 25.98 16 27 C10.72 27 5.44 27 0 27 C0 18.09 0 9.18 0 0 Z " fill="#0778DD" transform="translate(365,371)"/>
<path d="M0 0 C4.95 0 9.9 0 15 0 C15 0.99 15 1.98 15 3 C11.37 3 7.74 3 4 3 C4 5.64 4 8.28 4 11 C7.3 11 10.6 11 14 11 C14 11.99 14 12.98 14 14 C10.7 14 7.4 14 4 14 C4 17.3 4 20.6 4 24 C7.96 24 11.92 24 16 24 C16 24.99 16 25.98 16 27 C10.72 27 5.44 27 0 27 C0 18.09 0 9.18 0 0 Z " fill="#0778DD" transform="translate(234,371)"/>
<path d="M0 0 C4.95 0 9.9 0 15 0 C15 0.99 15 1.98 15 3 C11.37 3 7.74 3 4 3 C4 5.97 4 8.94 4 12 C7.3 12 10.6 12 14 12 C14 12.99 14 13.98 14 15 C10.7 15 7.4 15 4 15 C4 18.96 4 22.92 4 27 C2.68 27 1.36 27 0 27 C0 18.09 0 9.18 0 0 Z " fill="#0778DD" transform="translate(458,371)"/>
<path d="M0 0 C6.93 0 13.86 0 21 0 C21 0.99 21 1.98 21 3 C18.36 3 15.72 3 13 3 C13 10.92 13 18.84 13 27 C11.68 27 10.36 27 9 27 C9 19.08 9 11.16 9 3 C6.03 3 3.06 3 0 3 C0 2.01 0 1.02 0 0 Z " fill="#0778DD" transform="translate(176,371)"/>
<path d="M0 0 C1.32 0 2.64 0 4 0 C4 7.92 4 15.84 4 24 C7.63 24 11.26 24 15 24 C15 24.99 15 25.98 15 27 C10.05 27 5.1 27 0 27 C0 18.09 0 9.18 0 0 Z " fill="#0778DD" transform="translate(798,371)"/>
<path d="M0 0 C1.32 0 2.64 0 4 0 C4 7.92 4 15.84 4 24 C7.63 24 11.26 24 15 24 C15 24.99 15 25.98 15 27 C10.05 27 5.1 27 0 27 C0 18.09 0 9.18 0 0 Z " fill="#0778DD" transform="translate(613,371)"/>
<path d="M0 0 C1.32 0 2.64 0 4 0 C4 7.92 4 15.84 4 24 C7.63 24 11.26 24 15 24 C15 24.99 15 25.98 15 27 C10.05 27 5.1 27 0 27 C0 18.09 0 9.18 0 0 Z " fill="#0778DD" transform="translate(63,371)"/>
<path d="M0 0 C1.32 0 2.64 0 4 0 C4 8.91 4 17.82 4 27 C2.68 27 1.36 27 0 27 C0 18.09 0 9.18 0 0 Z " fill="#0778DD" transform="translate(572,371)"/>
<path d="M0 0 C29.13902594 0.9874945 29.13902594 0.9874945 42 2 C42 2.33 42 2.66 42 3 C39.03 3 36.06 3 33 3 C33 3.66 33 4.32 33 5 C22.11 3.68 11.22 2.36 0 1 C0 0.67 0 0.34 0 0 Z " fill="#357BE7" transform="translate(728,89)"/>
<path d="M0 0 C5.43579321 0.46860286 10.61060068 1.30654168 15.9375 2.5 C21.62285941 3.76547088 27.19109469 4.61184734 33 5 C31.68 5.33 30.36 5.66 29 6 C29 6.66 29 7.32 29 8 C19.09802233 6.53869493 9.59746099 3.76626489 0 1 C0 0.67 0 0.34 0 0 Z " fill="#381BA8" transform="translate(139,125)"/>
<path d="M0 0 C5.46864457 1.01591421 10.76390013 2.07091057 16 4 C16 4.33 16 4.66 16 5 C9.98673249 4.42085333 3.99107278 3.77662055 -2 3 C-1.34 2.01 -0.68 1.02 0 0 Z " fill="#3819A6" transform="translate(454,8)"/>
<path d="M0 0 C3.3 0 6.6 0 10 0 C6 3 6 3 3 3 C3 2.34 3 1.68 3 1 C2.01 0.67 1.02 0.34 0 0 Z " fill="#3579E5" transform="translate(459,139)"/>
</svg>
